<svg width="142" height="142" viewBox="0 0 142 142" fill="none" xmlns="http://www.w3.org/2000/svg">
<g clip-path="url(#clip0_4_2)">
<rect width="142" height="142" fill="white"/>
<path fill-rule="evenodd" clip-rule="evenodd" d="M61.1196 19.8801C66.3984 10.7066 79.6071 10.7066 84.8859 19.8801L134.144 105.366C139.423 114.539 132.811 126 122.253 126H23.7445C13.1791 126 6.5747 114.539 11.8613 105.366L61.1196 19.8801ZM73.0027 39.5712C74.5629 39.5712 76.0592 40.1924 77.1625 41.298C78.2657 42.4036 78.8855 43.9032 78.8855 45.4668V72.9794C78.8855 74.543 78.2657 76.0425 77.1625 77.1481C76.0592 78.2538 74.5629 78.8749 73.0027 78.8749C71.4425 78.8749 69.9462 78.2538 68.843 77.1481C67.7398 76.0425 67.12 74.543 67.12 72.9794V45.4668C67.12 43.9032 67.7398 42.4036 68.843 41.298C69.9462 40.1924 71.4425 39.5712 73.0027 39.5712ZM73.0027 110.318C75.083 110.318 77.0781 109.49 78.5491 108.015C80.02 106.541 80.8464 104.542 80.8464 102.457C80.8464 100.372 80.02 98.3729 78.5491 96.8987C77.0781 95.4246 75.083 94.5964 73.0027 94.5964C70.9225 94.5964 68.9274 95.4246 67.4564 96.8987C65.9855 98.3729 65.1591 100.372 65.1591 102.457C65.1591 104.542 65.9855 106.541 67.4564 108.015C68.9274 109.49 70.9225 110.318 73.0027 110.318Z" fill="black"/>
</g>
<defs>
<clipPath id="clip0_4_2">
<rect width="142" height="142" fill="white"/>
</clipPath>
</defs>
</svg>
